<svg id="Слой_1" data-name="Слой 1" xmlns="http://www.w3.org/2000/svg" xmlns:xlink="http://www.w3.org/1999/xlink" viewBox="0 0 436.39 623.21"><defs><style>.cls-1,.cls-2{fill:none;stroke-miterlimit:10;}.cls-1{stroke:#fffbfc;stroke-width:6px;}.cls-2{stroke-width:9px;stroke:url(#Безымянный_градиент_25);}.cls-3{fill:url(#Безымянный_градиент_25-2);}.cls-4{fill:url(#Безымянный_градиент_14);}</style><linearGradient id="Безымянный_градиент_25" x1="196.37" y1="288.17" x2="631.04" y2="288.17" gradientUnits="userSpaceOnUse"><stop offset="0" stop-color="#fff"/><stop offset="0.6" stop-color="#fff"/><stop offset="1" stop-color="#9b9a9a"/></linearGradient><linearGradient id="Безымянный_градиент_25-2" x1="50.82" y1="43.78" x2="388.11" y2="43.78" xlink:href="#Безымянный_градиент_25"/><linearGradient id="Безымянный_градиент_14" y1="117.85" x2="436.39" y2="117.85" gradientUnits="userSpaceOnUse"><stop offset="0" stop-color="#fff"/><stop offset="0.58" stop-color="#fff"/><stop offset="1" stop-color="#9b9a9a"/></linearGradient></defs><title>cup2</title><line class="cls-1" x1="53.3" y1="70.45" x2="384.37" y2="70.45"/><line class="cls-1" x1="27.57" y1="165.05" x2="403.65" y2="165.05"/><g id="coffee-cup-20-coffee-cup-20"><path class="cls-2" d="M614.71,47H579.24V-4.37a14.56,14.56,0,0,0-14.56-14.56H263.45A15.28,15.28,0,0,0,248.17-3.65V47H212.7a11.84,11.84,0,0,0-11.84,11.84v70.94a11.83,11.83,0,0,0,11.83,11.83h14.73l41.22,443a11.82,11.82,0,0,0,11.76,10.62H540.56a11.8,11.8,0,0,0,11.73-10.62l46.23-443h16.19a11.83,11.83,0,0,0,11.83-11.83V58.85A11.83,11.83,0,0,0,614.71,47Z" transform="translate(-194.87 23.43)"/></g><rect class="cls-3" x="50.82" y="1.29" width="337.29" height="84.98" rx="18.32" ry="18.32"/><rect class="cls-4" y="67.27" width="436.39" height="101.17" rx="18.32" ry="18.32"/></svg>